<svg xmlns="http://www.w3.org/2000/svg" xmlns:xlink="http://www.w3.org/1999/xlink" xmlns:lucid="lucid" width="1240" height="580"><g transform="translate(-100 -100)" lucid:page-tab-id="0_0"><path d="M120 126a6 6 0 0 1 6-6h608a6 6 0 0 1 6 6v528a6 6 0 0 1-6 6H126a6 6 0 0 1-6-6z" stroke="#232f3e" fill="#fff" fill-opacity="0"/><path d="M120 120h56v56h-56v-56z" stroke="#fff" stroke-opacity="0" fill="#232f3e"/><path d="M138.22 145.87c-.04.48.05.87.17 1.34.1.4.28.7.48 1.07.04.1.08.22.08.34 0 .2-.12.36-.28.46l-.95.62c-.12.08-.25.13-.37.13-.16 0-.33-.06-.45-.2-.2-.2-.36-.43-.52-.7-.17-.25-.3-.53-.46-.86-1.1 1.37-2.62 2.1-4.4 2.06-1.14.06-2.12-.3-2.95-1.08-.78-.8-1.15-1.76-1.1-2.85-.05-1.23.4-2.28 1.35-3.08 1.07-.85 2.3-1.23 3.66-1.16.57 0 1.02.02 1.6.1.57.1 1.1.2 1.72.33v-1.1c.08-.88-.16-1.67-.7-2.37-.74-.56-1.56-.8-2.46-.7-.53 0-1.03.07-1.6.2-.58.13-1.03.3-1.6.5l-.5.2h-.24c-.2 0-.33-.16-.33-.45v-.75c0-.18.04-.34.12-.5.12-.16.24-.26.4-.33.66-.3 1.2-.5 1.9-.67.77-.2 1.47-.3 2.3-.28 1.47-.13 2.78.26 3.9 1.2.94 1.05 1.35 2.28 1.22 3.67zm-6.07 2.28c.57 0 1.06-.1 1.6-.28.57-.2 1.02-.5 1.44-.96.23-.27.4-.56.48-.93.12-.45.16-.84.16-1.3V144c-.53-.1-.94-.17-1.43-.2H133c-.8-.08-1.55.12-2.2.58-.54.45-.8 1.04-.75 1.73-.04.6.13 1.16.54 1.6.44.38.97.52 1.55.45zm12 1.6c-.22 0-.42-.03-.6-.15-.15-.17-.23-.36-.32-.6l-3.5-11.5-.1-.62c0-.24.1-.37.36-.37h1.47c.2 0 .37.04.57.15.17.18.25.37.3.6l2.5 9.96 2.38-9.93c0-.24.08-.44.28-.6.17-.12.37-.16.58-.15h1.2c.24 0 .4.03.6.15.17.18.25.36.3.6l2.33 9.94 2.56-10c.04-.2.16-.4.33-.58.15-.1.36-.17.56-.14h1.4c.16 0 .33.1.37.3v.31s0 .2-.12.35l-3.6 11.53c-.05.22-.13.42-.3.6-.2.1-.36.14-.57.13h-1.27c-.25.04-.45-.02-.62-.15-.16-.16-.25-.36-.3-.6l-2.3-9.6-2.3 9.6c-.03.24-.1.44-.27.6-.2.13-.4.2-.62.16zm19.2.38c-.82 0-1.5-.07-2.3-.25-.65-.13-1.14-.3-1.72-.6-.2-.1-.37-.23-.45-.42-.08-.14-.12-.28-.12-.43v-.75c0-.3.12-.46.32-.46h.3l.36.16c.58.23 1.03.4 1.6.5.62.14 1.15.2 1.8.2.8.05 1.5-.1 2.2-.5.48-.3.77-.8.72-1.4.05-.4-.12-.76-.36-1.04-.46-.4-.95-.65-1.52-.8l-2.18-.68c-.94-.25-1.73-.73-2.38-1.5-.5-.65-.74-1.35-.74-2.18 0-.6.12-1.08.4-1.6.3-.5.63-.9 1.08-1.22.5-.38.98-.6 1.6-.78.66-.18 1.2-.26 1.9-.25.32-.03.6-.03.97 0l1 .16.8.22.67.26c.16.1.28.22.45.38.08.15.12.3.12.5v.7c0 .32-.12.47-.37.47-.2-.03-.37-.08-.57-.18-.95-.42-1.8-.6-2.88-.58-.7-.04-1.3.1-1.97.4-.5.3-.74.8-.7 1.36 0 .4.13.76.46 1.05.5.4.98.65 1.6.82l2.1.67c.94.24 1.67.7 2.3 1.44.48.64.7 1.3.7 2.1 0 .63-.13 1.17-.38 1.73-.3.55-.62.95-1.1 1.32-.5.4-1 .66-1.6.84-.75.23-1.4.33-2.15.34zM166.1 157.48c-5.6 3.82-11.36 5.58-18.15 5.56-8.54.05-15.82-2.74-22.16-8.45-.5-.42 0-1 .48-.68 7.07 4.05 14.03 5.9 22.2 5.9 6.1-.04 11.3-1.1 16.93-3.47.83-.35 1.52.55.7 1.13z" stroke="#fff" stroke-opacity="0" fill="#fff"/><path d="M168.16 155.2c-.64-.82-4.16-.38-5.75-.2-.46 0-.53-.36-.1-.66 2.8-1.98 7.42-1.4 8-.74.6.67-.14 5.28-2.78 7.5-.4.32-.78.13-.6-.3.54-1.52 1.86-4.83 1.24-5.6z" stroke="#fff" stroke-opacity="0" fill="#fff"/><use xlink:href="#a" transform="matrix(1,0,0,1,191,140) translate(0 14.4)"/><use xlink:href="#b" transform="matrix(1,0,0,1,191,140) translate(45.3 14.4)"/><path d="M1100 124a4 4 0 0 1 4-4h212a4 4 0 0 1 4 4v532a4 4 0 0 1-4 4h-212a4 4 0 0 1-4-4z" stroke="#0e76d4" fill-opacity="0"/><path d="M1110 130h36v36h-36v-36z" stroke="#000" stroke-opacity="0" fill-opacity="0"/><path d="M1122.66 132H1133l-10.74 30.92c-.1.32-.33.57-.6.8-.28.2-.6.3-.96.3h-8.05c-.26 0-.53-.08-.75-.2-.24-.1-.44-.26-.6-.5-.15-.18-.23-.43-.28-.7-.04-.2-.02-.47.07-.73l10-28.8c.1-.33.3-.6.6-.8.28-.2.6-.3.96-.3z" stroke="#000" stroke-opacity="0" fill="url(#c)"/><path d="M1136.82 152h-17.03c-.16 0-.32.04-.45.13-.13.1-.24.2-.3.36-.05.14-.07.3-.03.46.02.15.1.28.22.4l10.96 10.17c.3.3.72.45 1.16.45h9.64l-4.18-11.98z" stroke="#000" stroke-opacity="0" fill="#0078d4"/><path d="M1122.4 132c-.36 0-.7.1-.96.32-.27.2-.48.48-.57.8l-9.78 28.74c-.1.26-.13.5-.1.77.06.26.15.48.3.7.15.2.33.4.57.48.24.14.48.2.75.2h8.07c.3-.06.56-.2.8-.38.24-.2.42-.45.5-.73l1.96-5.7 6.95 6.42c.3.26.67.4 1.03.4h9.06l-3.97-11.28h-11.57l7.07-20.74h-10.13z" stroke="#000" stroke-opacity="0" fill="url(#d)"/><path d="M1135.42 133.1c-.1-.33-.3-.62-.57-.8-.26-.2-.6-.3-.92-.3H1123c.33 0 .63.1.9.3.28.18.48.47.57.8l9.5 28.8c.1.25.1.5.07.73-.05.26-.13.5-.3.7-.12.23-.32.4-.54.48-.22.14-.46.2-.7.2h10.93c.24 0 .48-.06.7-.2.22-.08.42-.24.58-.47.14-.2.25-.44.27-.7.04-.22.02-.48-.07-.74l-9.48-28.8z" stroke="#000" stroke-opacity="0" fill="url(#e)"/><use xlink:href="#f" transform="matrix(1,0,0,1,1176,140) translate(0 14.4)"/><use xlink:href="#g" transform="matrix(1,0,0,1,1176,140) translate(51.95 14.4)"/><path d="M780 126a6 6 0 0 1 6-6h268a6 6 0 0 1 6 6v528a6 6 0 0 1-6 6H786a6 6 0 0 1-6-6z" stroke="#bfbfbf" fill="#f0f0f0"/><use xlink:href="#h" transform="matrix(1,0,0,1,800,140) translate(0 14.4)"/><use xlink:href="#i" transform="matrix(1,0,0,1,800,140) translate(50.95 14.4)"/><path d="M1210 260c-1.5 0-2.88-.6-3.9-1.62l-24.48-24.48c-1.02-1.02-1.62-2.46-1.62-3.9s.6-2.88 1.62-3.9l24.48-24.48c1.02-1.02 2.4-1.62 3.9-1.62s2.88.6 3.9 1.62l24.48 24.48c1.02 1.02 1.62 2.4 1.62 3.9s-.6 2.88-1.62 3.9l-24.48 24.48c-1.02 1.02-2.4 1.62-3.9 1.62" stroke="#000" stroke-opacity="0" fill="#59b4d9"/><path d="M1226.36 225.3c-2.6 0-4.7 2.13-4.7 4.7 0 .94.28 1.84.74 2.57l-9.3 9.3c-.2-.18-.5-.3-.75-.44V217.7c1.4-.8 2.36-2.3 2.36-4 0-2.63-2.1-4.72-4.7-4.72s-4.67 2.1-4.67 4.7c0 1.72.93 3.22 2.3 4.03v23.73l-.74.4-9.3-9.3c.46-.73.75-1.6.75-2.53 0-2.57-2.1-4.7-4.67-4.7-2.6 0-4.7 2.13-4.7 4.7 0 2.6 2.1 4.7 4.7 4.7.5 0 1-.12 1.52-.3l9.8 9.82c-.3.64-.47 1.37-.47 2.1 0 3.04 2.44 5.48 5.47 5.48s5.46-2.44 5.46-5.48c0-.73-.16-1.42-.42-2.1l9.8-9.8c.46.16.97.3 1.47.3 2.62 0 4.72-2.1 4.72-4.72 0-2.57-2.1-4.7-4.66-4.7z" stroke="#000" stroke-opacity="0" fill="#fff"/><path d="M1228.57 229.98l-2.15 2.14-17.54-17.54 2.14-2.14 17.55 17.54z" stroke="#000" stroke-opacity="0" fill="#fff" fill-opacity=".5"/><path d="M1209 212.45l2.14 2.15-17.54 17.54-2.15-2.15 17.54-17.55z" stroke="#000" stroke-opacity="0" stroke-width=".71" fill="#fff" fill-opacity=".5"/><path d="M1213.2 246.34c0 1.8-1.46 3.25-3.25 3.25-1.8 0-3.25-1.47-3.25-3.26 0-1.8 1.45-3.25 3.25-3.25s3.25 1.44 3.25 3.24M1212.6 213.67c0 1.44-1.16 2.6-2.6 2.6-1.44 0-2.6-1.16-2.6-2.6 0-1.44 1.16-2.6 2.6-2.6 1.44 0 2.6 1.16 2.6 2.6M1196.28 230c0 1.44-1.17 2.6-2.6 2.6-1.45 0-2.62-1.16-2.62-2.6 0-1.44 1.17-2.6 2.6-2.6 1.45 0 2.62 1.16 2.62 2.6M1228.95 230c0 1.44-1.17 2.6-2.6 2.6-1.45 0-2.62-1.16-2.62-2.6 0-1.44 1.17-2.6 2.6-2.6 1.45 0 2.62 1.16 2.62 2.6" stroke="#000" stroke-opacity="0" fill="#b8d432"/><path d="M1213.93 201.62c-1.08-1.05-2.45-1.62-3.94-1.62-1.47 0-2.88.57-3.92 1.62l-24.46 24.46c-1.04 1.05-1.62 2.48-1.62 3.92 0 1.48.58 2.86 1.62 3.9l13.87 13.87 26.03-38.55-7.6-7.6z" stroke="#000" stroke-opacity="0" fill="#fff" fill-opacity=".1"/><use xlink:href="#j" transform="matrix(1,0,0,1,1150,269) translate(35.525 14.4)"/><use xlink:href="#k" transform="matrix(1,0,0,1,1150,269) translate(24.099999999999994 36)"/><path d="M840 426a6 6 0 0 1 6-6h148a6 6 0 0 1 6 6v48a6 6 0 0 1-6 6H846a6 6 0 0 1-6-6z" stroke="#3a414a" fill="#fff"/><use xlink:href="#l" transform="matrix(1,0,0,1,845,425) translate(49.72222222222223 30.27777777777778)"/><path d="M840 222.67a6 6 0 0 1 6-6h148a6 6 0 0 1 6 6V274a6 6 0 0 1-6 6H846a6 6 0 0 1-6-6z" stroke="#3a414a" fill="#fff"/><use xlink:href="#m" transform="matrix(1,0,0,1,845,221.66666666666669) translate(39.22839506172839 21.15277777777778)"/><use xlink:href="#n" transform="matrix(1,0,0,1,845,221.66666666666669) translate(10.246913580246911 47.81944444444444)"/><path d="M1000.96 248.33h83.27a6 6 0 0 0 6-6V236a6 6 0 0 1 6-6h67.4" stroke="#3a414a" fill="none"/><path d="M1000.98 248.83h-.52v-1h.52z" stroke="#3a414a" stroke-width=".05" fill="#3a414a"/><path d="M1178.38 230l-14.26 4.64v-9.28z" stroke="#3a414a" fill="#3a414a"/><path d="M920 480.96v22.2" stroke="#3a414a" fill="none"/><path d="M920.5 480.98h-1v-.52h1z" stroke="#3a414a" stroke-width=".05" fill="#3a414a"/><path d="M920 517.9l-4.64-14.25h9.28z" stroke="#3a414a" fill="#3a414a"/><path d="M260 206a6 6 0 0 1 6-6h158a6 6 0 0 1 6 6v48a6 6 0 0 1-6 6H266a6 6 0 0 1-6-6z" stroke="#3a414a" fill="#fff"/><use xlink:href="#o" transform="matrix(1,0,0,1,272,212) translate(27.5679012345679 22.27777777777778)"/><use xlink:href="#p" transform="matrix(1,0,0,1,272,212) translate(78.92592592592592 22.27777777777778)"/><path d="M348.92 160L320 207.14l60 .33L348.92 160z" fill="none"/><path d="M347.3 207.14c-14.76-.1-26.88-.2-26.88-.24-.06-.05 28.38-46.47 28.5-46.42.06 0 20.16 30.58 29.94 45.55l.9 1.35-2.82-.05c-1.5 0-14.88-.1-29.64-.2z" fill="#29aae1"/><path d="M335.54 182.37l27.54-.2-12.84 24.58-14.7-24.38z" fill="none"/><path d="M360.74 189.8c0 7.5-5.1 13.54-11.46 13.54-6.3 0-11.4-6.04-11.4-13.53 0-7.48 5.1-13.53 11.4-13.53 6.36 0 11.46 6.05 11.46 13.54z" fill="#fff"/><path d="M341.78 194.66l-7.98-13.4 14.94-.1c8.22-.1 15-.1 15.06-.1l-13.92 27c-.06 0-3.66-6-8.1-13.4z" fill="#fff"/><path d="M359.48 189.7c0 6.1-4.56 11-10.2 11-5.58 0-10.14-4.9-10.14-11 0-6.04 4.56-10.98 10.14-10.98 5.64 0 10.2 4.94 10.2 11z" fill="#54bbe7"/><path d="M357.92 189.7c0 5.24-3.84 9.42-8.52 9.42-4.74 0-8.58-4.18-8.58-9.4 0-5.2 3.84-9.42 8.58-9.42 4.68 0 8.52 4.23 8.52 9.4z" fill="#fff"/><path d="M339.68 188.46h19.8v1.5h-19.8v-1.5z" fill="#54bbe7"/><path d="M348.68 179.4h1.74v20.87h-1.74V179.4z" fill="#54bbe7"/><path d="M341.72 194.56h16.26v.34h-16.26v-.34zM340.34 184.96h16.44v.34h-16.44v-.34z" fill="#54bbe7"/><path d="M446.85 230H629a6 6 0 0 1 6 6v8a6 6 0 0 0 6 6h182.15" stroke="#3a414a" fill="none"/><path d="M432.08 230l14.27-4.64v9.28zM837.92 250l-14.27 4.64v-9.28z" stroke="#3a414a" fill="#3a414a"/><path d="M936.44 223.64c1.96 0 3.56-1.6 3.56-3.5v-.42c-1.44-11.1-7.76-20.13-20-20.13s-18.72 7.64-19.96 20.14c-.04 0-.04.03-.04.03-.16 1.94 1.28 3.67 3.24 3.87h33.2z" stroke="#000" stroke-opacity="0" fill="url(#q)"/><path d="M920 202.24c-2.26 0-4.2-.56-6.08-1.77l6.07 15.57 5.96-15.48c-1.88 1.17-3.76 1.7-5.97 1.68z" stroke="#000" stroke-opacity="0" fill="#fff" fill-opacity=".8"/><path d="M931.24 191.1c0 6.14-5.02 11.1-11.2 11.1s-11.2-4.96-11.2-11.1c0-6.12 5.02-11.1 11.2-11.1s11.2 4.98 11.2 11.1z" stroke="#000" stroke-opacity="0" fill="url(#r)"/><path d="M520 548.67a6 6 0 0 1 6-6h158a6 6 0 0 1 6 6V614a6 6 0 0 1-6 6H526a6 6 0 0 1-6-6z" stroke="#3a414a" fill="#fff"/><use xlink:href="#s" transform="matrix(1,0,0,1,532,554.6666666666666) translate(27.320987654320987 21.15277777777778)"/><use xlink:href="#t" transform="matrix(1,0,0,1,532,554.6666666666666) translate(82.87654320987653 21.15277777777778)"/><use xlink:href="#u" transform="matrix(1,0,0,1,532,554.6666666666666) translate(32.62962962962963 44.263888888888886)"/><path d="M519.04 581.33h-38.77a6 6 0 0 1-6-6V565a6 6 0 0 0-6-6h-22.9" stroke="#3a414a" fill="none"/><path d="M519.54 581.83h-.52v-1h.52z" stroke="#3a414a" stroke-width=".05" fill="#3a414a"/><path d="M430.62 559l14.26-4.64v9.28z" stroke="#3a414a" fill="#3a414a"/><path d="M892.13 550h-94.58a6 6 0 0 0-6 6v19.33a6 6 0 0 1-6 6h-78.7" stroke="#3a414a" fill="none"/><path d="M892.63 550.5h-.5v-1h.5z" stroke="#3a414a" stroke-width=".05" fill="#3a414a"/><path d="M692.08 581.33l14.27-4.63v9.27z" stroke="#3a414a" fill="#3a414a"/><path d="M140 386a6 6 0 0 1 6-6h148a6 6 0 0 1 6 6v48a6 6 0 0 1-6 6H146a6 6 0 0 1-6-6z" stroke="#3a414a" fill="#fff"/><use xlink:href="#v" transform="matrix(1,0,0,1,152,392) translate(5.7777777777777715 22.27777777777778)"/><use xlink:href="#w" transform="matrix(1,0,0,1,152,392) translate(56.2716049382716 22.27777777777778)"/><path d="M360 386a6 6 0 0 1 6-6h158a6 6 0 0 1 6 6v48a6 6 0 0 1-6 6H366a6 6 0 0 1-6-6z" stroke="#3a414a" fill="#fff"/><use xlink:href="#x" transform="matrix(1,0,0,1,372,392) translate(4.6049382716049365 22.27777777777778)"/><use xlink:href="#w" transform="matrix(1,0,0,1,372,392) translate(67.44444444444443 22.27777777777778)"/><path d="M219.97 516.56l24.96 3.26v1.93c0 2.86-11.18 5.18-24.96 5.18-13.78 0-24.97-2.32-24.97-5.18v-2.1z" fill="#8c3123"/><path d="M219.98 530.47c10.42 0 19.35-1.34 23.07-3.22l1.24-1.8.48-1.68v2.07l-8.18 30.7c0 1.93-7.44 3.46-16.62 3.46s-16.62-1.53-16.62-3.45l-8.2-30.7v-2.04l1.9 3.52c3.77 1.85 12.6 3.15 22.92 3.15z" fill="#8c3123"/><path d="M219.97 514.5c13.78 0 24.97 2.32 24.97 5.17 0 2.84-11.2 5.14-24.97 5.14-13.78 0-24.97-2.27-24.97-5.13 0-2.87 11.2-5.17 24.97-5.17z" fill="#e05243"/><path d="M219.97 528.38c12.85 0 23.42-1.98 24.8-4.58l-8.18 30.72c0 1.9-7.45 3.45-16.63 3.45s-16.62-1.54-16.62-3.45l-8.2-30.72c1.4 2.6 11.97 4.58 24.82 4.58z" fill="#e05243"/><use xlink:href="#y" transform="matrix(1,0,0,1,195,560) translate(11.419753086419753 17.77777777777778)"/><path d="M445 456.85v17.38a6 6 0 0 1-6 6h-47.54a6 6 0 0 0-6 6v17.4" stroke="#3a414a" fill="none"/><path d="M445 442.08l4.64 14.27h-9.28zM385.46 518.38l-4.63-14.26h9.27z" stroke="#3a414a" fill="#3a414a"/><path d="M220 440.96v34.43a2.26 2.26 0 0 1-2.26 2.25 2.26 2.26 0 0 0-2.25 2.25v18.55" stroke="#3a414a" fill="none"/><path d="M220.5 440.98h-1v-.52h1z" stroke="#3a414a" stroke-width=".05" fill="#3a414a"/><path d="M215.5 513.2l-4.65-14.25h9.27z" stroke="#3a414a" fill="#3a414a"/><path d="M373.66 276.83V314a6 6 0 0 0 6 6H439a6 6 0 0 1 6 6v37.15" stroke="#3a414a" fill="none"/><path d="M373.66 262.07l4.64 14.26h-9.27zM445 377.92l-4.64-14.27h9.28z" stroke="#3a414a" fill="#3a414a"/><path d="M540 286a6 6 0 0 1 6-6h158a6 6 0 0 1 6 6v48a6 6 0 0 1-6 6H546a6 6 0 0 1-6-6z" stroke="#3a414a" fill="#fff"/><use xlink:href="#z" transform="matrix(1,0,0,1,552,292) translate(1.5493827160493794 22.27777777777778)"/><use xlink:href="#w" transform="matrix(1,0,0,1,552,292) translate(70.5 22.27777777777778)"/><path d="M446.83 254.65H479a6 6 0 0 1 6 6V304a6 6 0 0 0 6 6h32.15" stroke="#3a414a" fill="none"/><path d="M432.07 254.65l14.26-4.64v9.28zM537.92 310l-14.27 4.64v-9.28z" stroke="#3a414a" fill="#3a414a"/><path d="M360 534.5h60v60h-60v-60z" stroke="#fff" stroke-opacity="0" stroke-width="2" fill="#3b48cc"/><path d="M400.2 566.9l-5.3 5.27c1-.28 1.82-.6 2.75-1.12.54.32.84.84.95 1.44 0 1.46-3.1 3.06-7.7 3.7-1.52.2-2.77.28-4.3.28h-.8c-6.46-.12-11.2-2.16-11.2-4 .08-.6.4-1.07.95-1.43 2.5 1.4 6.6 2.23 11.05 2.23h.08l.47-1.6h-.55c-4.4 0-8.5-.87-10.64-2.23-.87-.56-1.36-1.2-1.36-1.72V564c2.45 1.9 7.32 2.85 12 2.85.63 0 1.25 0 1.88-.04l.46-1.6c-.8.05-1.55.1-2.34.1-6.86 0-12-2.13-12-4 .08-.64.4-1.12.95-1.44 2.2 1.23 5.6 2 9.45 2.2l.05-1.6c-3.78-.2-7.2-1-9.1-2.24-.86-.52-1.32-1.16-1.35-1.72v-3.68c2.45 1.88 7.32 2.84 12 2.84h.16l.88-1.6h-1.04c-6.86 0-12-2.08-12-4 0-1.87 5.14-4 12-4 2.42 0 4.5.25 6.86.8h4.4c-2.42-1.47-6.55-2.4-11.26-2.4-6.58 0-13.6 1.97-13.6 5.6v6.44c.05.96.46 1.76 1.22 2.36-.76.64-1.17 1.44-1.22 2.4v6.4c.05 1 .46 1.8 1.22 2.43-.76.6-1.17 1.4-1.22 2.4v6.54c.2 3.52 7.1 5.4 13.6 5.4s13.4-1.88 13.6-5.44V572.44c-.02-.95-.46-1.8-1.22-2.4.76-.6 1.17-1.43 1.23-2.4zm-1.6 11.98c0 1.88-5.14 4-12 4s-12-2.08-12-4v-3.68c2.45 1.84 7.32 2.84 12 2.84s9.55-1 12-2.84z" stroke="#fff" stroke-opacity="0" stroke-width="2" fill="#fff"/><path d="M378 556.52c0 .55-.45 1-1 1s-1-.45-1-1c0-.56.45-1 1-1s1 .44 1 1zM378 567.72c0 .55-.45 1-1 1s-1-.45-1-1c0-.56.45-1 1-1s1 .44 1 1zM378 578.92c0 .55-.45 1-1 1s-1-.45-1-1c0-.56.45-1 1-1s1 .44 1 1zM388.6 575.68c-.15 0-.27-.02-.4-.1-.33-.2-.47-.58-.37-.93l4.5-14.97h-4.54c-.45.02-.8-.33-.8-.8 0-.13 0-.27.1-.37l4.78-9.6c.14-.28.4-.44.72-.44H403c.45-.03.8.33.83.76.02.1 0 .2-.02.3l-2.06 6.13h4.5c.44.02.8.38.8.8 0 .23-.08.4-.22.56l-17.6 18.4c-.17.2-.37.28-.63.28zm.5-17.58h4.3c.27 0 .5.1.65.3.14.2.2.46.12.7l-3.85 12.8 14-14.62h-3.72c-.44 0-.82-.33-.84-.76 0-.1 0-.22.04-.3l2.04-6.15h-8.8z" stroke="#fff" stroke-opacity="0" stroke-width="2" fill="#fff"/><use xlink:href="#A" transform="matrix(1,0,0,1,330,603.5) translate(24.876543209876544 17.77777777777778)"/><path d="M814.83 490.08l-.26.1-1 .24-.98.08h-2.05v-1h2l.88-.07.83-.2.2-.08zm-8.3-.58v1h-4.03v-1zm-8.06 0v1h-4.03v-1zm-8.05 0v1h-4.03v-1zm-8.06 0v1h-4.03v-1zm-8.05 0v1h-4.02v-1zm-8.05 0v1h-4.02v-1zm-8.05 0v1h-4.03v-1zm-8.06 0v1l-4.02-.02v-1zm-8.05-.02v1h-4.04v-1zm-8.06 0v1H730v-1zm-91.5-.02v1h-1.13v-1zm-5.16 0v1h-4.02v-1zm-8.05 0v1h-4.03v-1zm-8.05 0v1h-4.03v-1zm-8.06 0v1h-4.03v-1zm-8.05 0v1h-4.03v-1zm-8.06 0v1h-4v-1zm-8.04 0v1h-4.03v-1zm-8.06 0v1h-4.02v-1zm-8.05 0v1l-4.03-.02v-1zm-8.05-.02v1h-4.03v-1zm-8.06 0v1h-4.03v-1zm-8.05 0v1h-4.04v-1zm-8.07 0v1h-4.02v-1zm-8.05 0v1h-4.03v-1zm-8.06 0v1h-4.02v-1zm-8.05 0v1h-4.03v-1zm-8.05 0v1h-4.03v-1zm-8.06 0v1h-4.03v-1zm-11.62-.54l.8.33.8.2h1.97v1h-2.07l-1-.25-.95-.4-.23-.13.52-.85zM819 483v2l-.25 1-.4.95-.14.24-.84-.54.1-.16.33-.8.2-.82V483zm-333.17.98l.07.88.2.84.08.18-.93.38-.1-.25-.24-.98-.07-1v-2.28h1zM819 475.32v3.85h-1v-3.86zm-333.17 1.9h-1v-4.54h1zm333.2-9.6v3.85h-1v-3.85zm-333.2.53h-1v-4.53h1zm333.2-8.23v3.85h-1v-3.85zm-333.2-.83h-1v-2.27h1zm333.22-6.88v3.85h-1v-3.85zm.36-7.66l-.06.2-.2.82-.07.88v1.9h-1v-1.94l.07-1 .24-.98.1-.26zm6.15-3.55l-1.86.02-.83.2-.8.33-.17.1-.52-.85.23-.15.96-.4 1-.23h2zm7.7-.03l-3.85.02v-1l3.85-.03zm5.77-.03h-1.92v-1h1.92z" stroke="#3a414a" stroke-width=".05" fill="#3a414a"/><path d="M489.97 456.33h-9.27l4.63-14.27z" fill="#3a414a"/><path d="M490.66 456.83H480l5.33-16.4zm-9.27-1h7.88l-3.95-12.15z" stroke="#3a414a" stroke-width=".05" fill="#3a414a"/><path d="M839.52 440.94h-.5v-1h.5z" fill="#3a414a"/><path d="M839.55 440.97h-.57v-1.05h.57zm-.52-1v.95h.47v-.95z" stroke="#3a414a" stroke-width=".05" fill="#3a414a"/><use xlink:href="#B" transform="matrix(1,0,0,1,642.5397905738997,479.3333333333333) translate(0 14.222222222222223)"/><path d="M626.06 348.3h57.88v57.9h-57.88z" stroke="#fff" stroke-opacity="0" fill="#3b48cc"/><path d="M682.9 349.35v55.8h-55.8v-55.8h55.8m2.1-2.1h-60v60h60v-60z" stroke="#fff" stroke-opacity="0" fill="#fff"/><path d="M655.35 359.25c-7.07 0-12.44 2.28-12.44 5.3v26.08c0 3.05 5.38 5.33 12.45 5.33 7.07 0 12.44-2.28 12.44-5.3v-26.1c0-3.03-5.36-5.3-12.45-5.3zm0 1.4c6.5 0 11.02 2.05 11.02 3.9 0 1.82-4.53 3.88-11.02 3.88-6.5 0-11.02-2.02-11.02-3.86 0-1.83 4.53-3.93 11.02-3.93zm0 33.9c-6.5 0-11.02-2.04-11.02-3.88v-5.5c2.04 1.68 6.1 2.78 11.02 2.78 4.95 0 8.98-1.1 11.02-2.8v5.52c0 1.84-4.53 3.9-11.02 3.9zm0-8.03c-6.5 0-11.02-2.02-11.02-3.85v-6.46c2.04 1.66 6.1 2.76 11.02 2.76 4.95 0 8.98-1.1 11.02-2.75v6.47c0 1.83-4.53 3.85-11.02 3.85zm0-9c-6.5 0-11.02-2-11.02-3.84v-6.65c2.04 1.7 6.1 2.8 11.02 2.8 4.95 0 8.98-1.1 11.02-2.8v6.6c0 1.84-4.53 3.9-11.02 3.9z" stroke="#fff" stroke-opacity="0" fill="#fff"/><use xlink:href="#C" transform="matrix(1,0,0,1,595,416.25) translate(11.327160493827165 17.77777777777778)"/><path d="M587.2 356.86v5.86a6 6 0 0 0 6 6h17.52" stroke="#3a414a" fill="none"/><path d="M587.2 342.1l4.64 14.26h-9.28zM625.48 368.72l-14.26 4.64v-9.27z" stroke="#3a414a" fill="#3a414a"/><path d="M343.15 410h-26.3" stroke="#3a414a" fill="none"/><path d="M357.92 410l-14.27 4.64v-9.28zM302.08 410l14.27-4.64v9.28z" stroke="#3a414a" fill="#3a414a"/><path d="M927 547c0 .6-.4 1-1 1h-7.8c-.6 0-1-.4-1-1v-5.8c0-.6.4-1 1-1h7.8c.6 0 1 .4 1 1v5.8zM941 553c0 .6-.4 1-1 1h-7.8c-.6 0-1-.4-1-1v-5.8c0-.6.4-1 1-1h7.8c.6 0 1 .4 1 1v5.8zM927 559c0 .6-.4 1-1 1h-7.8c-.6 0-1-.4-1-1v-5.8c0-.6.4-1 1-1h7.8c.6 0 1 .4 1 1v5.8zM913 541c0 .6-.4 1-1 1h-8c-.6 0-1-.4-1-1v-6c0-.6.4-1 1-1h7.8c.8 0 1.2.4 1.2 1v6z" stroke="#000" stroke-opacity="0" stroke-width="4.69" fill="#b8d432"/><path d="M948 520H892c-.6 0-1 .4-1 1v12c0 .6.4 1 1 1H898c.58 0 .98-.4.98-1v-5h42v5c0 .6.4 1 1.2 1h5.8c.6 0 1-.4 1-1v-12c0-.6-.4-1-1-1zM948 566.2h-5.8c-.62 0-.97.4-.97 1v4.8H899v-5c0-.6-.4-1-1.2-1H892c-.6 0-1 .4-1 1.2V579c0 .6.4 1 1 1H948c.6 0 1-.4 1-1v-11.8c0-.6-.4-1-1-1z" stroke="#000" stroke-opacity="0" stroke-width="4.69" fill="#0072c6"/><path d="M913 553c0 .6-.4 1-1 1h-8c-.6 0-1-.4-1-1v-6c0-.6.4-1 1-1h7.8c.8 0 1.2.4 1.2 1v6zM913 565c0 .6-.4 1-1 1h-8c-.6 0-1-.4-1-1v-6c0-.6.4-1 1-1h7.8c.8 0 1.2.4 1.2 1v6z" stroke="#000" stroke-opacity="0" stroke-width="4.69" fill="#b8d432"/><path d="M892.63 521.9v56.47h54.84V521.9zm.05.05h54.74v56.36h-54.74z" stroke="#000" stroke-opacity="0" stroke-width="0" fill-opacity="0"/><g><use xlink:href="#D" transform="matrix(1,0,0,1,861,589) translate(6.549999999999997 14.4)"/><use xlink:href="#E" transform="matrix(1,0,0,1,861,589) translate(57.45 14.4)"/></g><path d="M920 280.96V304a6 6 0 0 1-6 6H726.85" stroke="#3a414a" fill="none"/><path d="M920.5 280.98h-1v-.52h1z" stroke="#3a414a" stroke-width=".05" fill="#3a414a"/><path d="M712.08 310l14.27-4.64v9.28z" stroke="#3a414a" fill="#3a414a"/><defs><path fill="#232f3e" d="M205 0l-28-72H64L36 0H1l101-248h38L239 0h-34zm-38-99l-47-123c-12 45-31 82-46 123h93" id="F"/><path fill="#232f3e" d="M266 0h-40l-56-210L115 0H75L2-248h35L96-30l15-64 43-154h32l59 218 59-218h35" id="G"/><path fill="#232f3e" d="M185-189c-5-48-123-54-124 2 14 75 158 14 163 119 3 78-121 87-175 55-17-10-28-26-33-46l33-7c5 56 141 63 141-1 0-78-155-14-162-118-5-82 145-84 179-34 5 7 8 16 11 25" id="H"/><g id="a"><use transform="matrix(0.05,0,0,0.05,0,0)" xlink:href="#F"/><use transform="matrix(0.05,0,0,0.05,11.35,0)" xlink:href="#G"/><use transform="matrix(0.05,0,0,0.05,28.299999999999997,0)" xlink:href="#H"/></g><path fill="#232f3e" d="M212-179c-10-28-35-45-73-45-59 0-87 40-87 99 0 60 29 101 89 101 43 0 62-24 78-52l27 14C228-24 195 4 139 4 59 4 22-46 18-125c-6-104 99-153 187-111 19 9 31 26 39 46" id="I"/><path fill="#232f3e" d="M24 0v-261h32V0H24" id="J"/><path fill="#232f3e" d="M100-194c62-1 85 37 85 99 1 63-27 99-86 99S16-35 15-95c0-66 28-99 85-99zM99-20c44 1 53-31 53-75 0-43-8-75-51-75s-53 32-53 75 10 74 51 75" id="K"/><path fill="#232f3e" d="M84 4C-5 8 30-112 23-190h32v120c0 31 7 50 39 49 72-2 45-101 50-169h31l1 190h-30c-1-10 1-25-2-33-11 22-28 36-60 37" id="L"/><path fill="#232f3e" d="M85-194c31 0 48 13 60 33l-1-100h32l1 261h-30c-2-10 0-23-3-31C134-8 116 4 85 4 32 4 16-35 15-94c0-66 23-100 70-100zm9 24c-40 0-46 34-46 75 0 40 6 74 45 74 42 0 51-32 51-76 0-42-9-74-50-73" id="M"/><g id="b"><use transform="matrix(0.05,0,0,0.05,0,0)" xlink:href="#I"/><use transform="matrix(0.05,0,0,0.05,12.950000000000001,0)" xlink:href="#J"/><use transform="matrix(0.05,0,0,0.05,16.900000000000002,0)" xlink:href="#K"/><use transform="matrix(0.05,0,0,0.05,26.900000000000002,0)" xlink:href="#L"/><use transform="matrix(0.05,0,0,0.05,36.900000000000006,0)" xlink:href="#M"/></g><linearGradient gradientUnits="userSpaceOnUse" id="c" x1="1135.24" y1="132.67" x2="1118.56" y2="167.56"><stop offset="0%" stop-color="#114a8b"/><stop offset="100%" stop-color="#0669bc"/></linearGradient><linearGradient gradientUnits="userSpaceOnUse" id="d" x1="1132.03" y1="148.83" x2="1129.12" y2="149.76"><stop offset="0%" stop-opacity=".3"/><stop offset="7.1%" stop-opacity=".2"/><stop offset="32.1%" stop-opacity=".1"/><stop offset="62.3%" stop-opacity=".05"/><stop offset="100%" stop-opacity="0"/></linearGradient><linearGradient gradientUnits="userSpaceOnUse" id="e" x1="1118.75" y1="131.66" x2="1137.83" y2="165.79"><stop offset="0%" stop-color="#3ccbf4"/><stop offset="100%" stop-color="#2892df"/></linearGradient><path d="M205 0l-28-72H64L36 0H1l101-248h38L239 0h-34zm-38-99l-47-123c-12 45-31 82-46 123h93" id="N"/><path d="M9 0v-24l116-142H16v-24h144v24L44-24h123V0H9" id="O"/><path d="M84 4C-5 8 30-112 23-190h32v120c0 31 7 50 39 49 72-2 45-101 50-169h31l1 190h-30c-1-10 1-25-2-33-11 22-28 36-60 37" id="P"/><path d="M114-163C36-179 61-72 57 0H25l-1-190h30c1 12-1 29 2 39 6-27 23-49 58-41v29" id="Q"/><path d="M100-194c63 0 86 42 84 106H49c0 40 14 67 53 68 26 1 43-12 49-29l28 8c-11 28-37 45-77 45C44 4 14-33 15-96c1-61 26-98 85-98zm52 81c6-60-76-77-97-28-3 7-6 17-6 28h103" id="R"/><g id="f"><use transform="matrix(0.05,0,0,0.05,0,0)" xlink:href="#N"/><use transform="matrix(0.05,0,0,0.05,12,0)" xlink:href="#O"/><use transform="matrix(0.05,0,0,0.05,21,0)" xlink:href="#P"/><use transform="matrix(0.05,0,0,0.05,31,0)" xlink:href="#Q"/><use transform="matrix(0.05,0,0,0.05,36.95,0)" xlink:href="#R"/></g><path d="M212-179c-10-28-35-45-73-45-59 0-87 40-87 99 0 60 29 101 89 101 43 0 62-24 78-52l27 14C228-24 195 4 139 4 59 4 22-46 18-125c-6-104 99-153 187-111 19 9 31 26 39 46" id="S"/><path d="M24 0v-261h32V0H24" id="T"/><path d="M100-194c62-1 85 37 85 99 1 63-27 99-86 99S16-35 15-95c0-66 28-99 85-99zM99-20c44 1 53-31 53-75 0-43-8-75-51-75s-53 32-53 75 10 74 51 75" id="U"/><path d="M85-194c31 0 48 13 60 33l-1-100h32l1 261h-30c-2-10 0-23-3-31C134-8 116 4 85 4 32 4 16-35 15-94c0-66 23-100 70-100zm9 24c-40 0-46 34-46 75 0 40 6 74 45 74 42 0 51-32 51-76 0-42-9-74-50-73" id="V"/><g id="g"><use transform="matrix(0.05,0,0,0.05,0,0)" xlink:href="#S"/><use transform="matrix(0.05,0,0,0.05,12.950000000000001,0)" xlink:href="#T"/><use transform="matrix(0.05,0,0,0.05,16.900000000000002,0)" xlink:href="#U"/><use transform="matrix(0.05,0,0,0.05,26.900000000000002,0)" xlink:href="#P"/><use transform="matrix(0.05,0,0,0.05,36.900000000000006,0)" xlink:href="#V"/></g><path d="M96-169c-40 0-48 33-48 73s9 75 48 75c24 0 41-14 43-38l32 2c-6 37-31 61-74 61-59 0-76-41-82-99-10-93 101-131 147-64 4 7 5 14 7 22l-32 3c-4-21-16-35-41-35" id="W"/><path d="M210-169c-67 3-38 105-44 169h-31v-121c0-29-5-50-35-48C34-165 62-65 56 0H25l-1-190h30c1 10-1 24 2 32 10-44 99-50 107 0 11-21 27-35 58-36 85-2 47 119 55 194h-31v-121c0-29-5-49-35-48" id="X"/><g id="h"><use transform="matrix(0.05,0,0,0.05,0,0)" xlink:href="#N"/><use transform="matrix(0.05,0,0,0.05,12,0)" xlink:href="#W"/><use transform="matrix(0.05,0,0,0.05,21,0)" xlink:href="#X"/><use transform="matrix(0.05,0,0,0.05,35.95,0)" xlink:href="#R"/></g><path d="M140-251c81 0 123 46 123 126C263-46 219 4 140 4 59 4 17-45 17-125s42-126 123-126zm0 227c63 0 89-41 89-101s-29-99-89-99c-61 0-89 39-89 99S79-25 140-24" id="Y"/><path d="M117-194c89-4 53 116 60 194h-32v-121c0-31-8-49-39-48C34-167 62-67 57 0H25l-1-190h30c1 10-1 24 2 32 11-22 29-35 61-36" id="Z"/><path d="M16-82v-28h88v28H16" id="aa"/><path d="M30-248c87 1 191-15 191 75 0 78-77 80-158 76V0H30v-248zm33 125c57 0 124 11 124-50 0-59-68-47-124-48v98" id="ab"/><g id="i"><use transform="matrix(0.05,0,0,0.05,0,0)" xlink:href="#Y"/><use transform="matrix(0.05,0,0,0.05,14,0)" xlink:href="#Z"/><use transform="matrix(0.05,0,0,0.05,24,0)" xlink:href="#aa"/><use transform="matrix(0.05,0,0,0.05,29.950000000000003,0)" xlink:href="#ab"/><use transform="matrix(0.05,0,0,0.05,41.95,0)" xlink:href="#Q"/><use transform="matrix(0.05,0,0,0.05,47.900000000000006,0)" xlink:href="#R"/><use transform="matrix(0.05,0,0,0.05,57.900000000000006,0)" xlink:href="#X"/></g><path d="M59-47c-2 24 18 29 38 22v24C64 9 27 4 27-40v-127H5v-23h24l9-43h21v43h35v23H59v120" id="ac"/><path d="M24-231v-30h32v30H24zM24 0v-190h32V0H24" id="ad"/><path d="M108 0H70L1-190h34L89-25l56-165h34" id="ae"/><g id="j"><use transform="matrix(0.05,0,0,0.05,0,0)" xlink:href="#N"/><use transform="matrix(0.05,0,0,0.05,12,0)" xlink:href="#W"/><use transform="matrix(0.05,0,0,0.05,21,0)" xlink:href="#ac"/><use transform="matrix(0.05,0,0,0.05,26,0)" xlink:href="#ad"/><use transform="matrix(0.05,0,0,0.05,29.950000000000003,0)" xlink:href="#ae"/><use transform="matrix(0.05,0,0,0.05,38.95,0)" xlink:href="#R"/></g><path d="M30-248c118-7 216 8 213 122C240-48 200 0 122 0H30v-248zM63-27c89 8 146-16 146-99s-60-101-146-95v194" id="af"/><path d="M179-190L93 31C79 59 56 82 12 73V49c39 6 53-20 64-50L1-190h34L92-34l54-156h33" id="ag"/><g id="k"><use transform="matrix(0.05,0,0,0.05,0,0)" xlink:href="#af"/><use transform="matrix(0.05,0,0,0.05,12.950000000000001,0)" xlink:href="#ad"/><use transform="matrix(0.05,0,0,0.05,16.900000000000002,0)" xlink:href="#Q"/><use transform="matrix(0.05,0,0,0.05,22.85,0)" xlink:href="#R"/><use transform="matrix(0.05,0,0,0.05,32.85,0)" xlink:href="#W"/><use transform="matrix(0.05,0,0,0.05,41.85,0)" xlink:href="#ac"/><use transform="matrix(0.05,0,0,0.05,46.85,0)" xlink:href="#U"/><use transform="matrix(0.05,0,0,0.05,56.85,0)" xlink:href="#Q"/><use transform="matrix(0.05,0,0,0.05,62.800000000000004,0)" xlink:href="#ag"/></g><path fill="#3a414a" d="M140-251c81 0 123 46 123 126C263-46 219 4 140 4 59 4 17-45 17-125s42-126 123-126zm0 227c63 0 89-41 89-101s-29-99-89-99c-61 0-89 39-89 99S79-25 140-24" id="ah"/><path fill="#3a414a" d="M240 0l2-218c-23 76-54 145-80 218h-23L58-218 59 0H30v-248h44l77 211c21-75 51-140 76-211h43V0h-30" id="ai"/><path fill="#3a414a" d="M185-189c-5-48-123-54-124 2 14 75 158 14 163 119 3 78-121 87-175 55-17-10-28-26-33-46l33-7c5 56 141 63 141-1 0-78-155-14-162-118-5-82 145-84 179-34 5 7 8 16 11 25" id="aj"/><g id="l"><use transform="matrix(0.06172839506172839,0,0,0.06172839506172839,0,0)" xlink:href="#ah"/><use transform="matrix(0.06172839506172839,0,0,0.06172839506172839,17.28395061728395,0)" xlink:href="#ai"/><use transform="matrix(0.06172839506172839,0,0,0.06172839506172839,35.74074074074073,0)" xlink:href="#aj"/></g><path fill="#3a414a" d="M33 0v-248h34V0H33" id="ak"/><path fill="#3a414a" d="M85-194c31 0 48 13 60 33l-1-100h32l1 261h-30c-2-10 0-23-3-31C134-8 116 4 85 4 32 4 16-35 15-94c0-66 23-100 70-100zm9 24c-40 0-46 34-46 75 0 40 6 74 45 74 42 0 51-32 51-76 0-42-9-74-50-73" id="al"/><path fill="#3a414a" d="M100-194c63 0 86 42 84 106H49c0 40 14 67 53 68 26 1 43-12 49-29l28 8c-11 28-37 45-77 45C44 4 14-33 15-96c1-61 26-98 85-98zm52 81c6-60-76-77-97-28-3 7-6 17-6 28h103" id="am"/><path fill="#3a414a" d="M117-194c89-4 53 116 60 194h-32v-121c0-31-8-49-39-48C34-167 62-67 57 0H25l-1-190h30c1 10-1 24 2 32 11-22 29-35 61-36" id="an"/><path fill="#3a414a" d="M59-47c-2 24 18 29 38 22v24C64 9 27 4 27-40v-127H5v-23h24l9-43h21v43h35v23H59v120" id="ao"/><path fill="#3a414a" d="M24-231v-30h32v30H24zM24 0v-190h32V0H24" id="ap"/><path fill="#3a414a" d="M179-190L93 31C79 59 56 82 12 73V49c39 6 53-20 64-50L1-190h34L92-34l54-156h33" id="aq"/><g id="m"><use transform="matrix(0.06172839506172839,0,0,0.06172839506172839,0,0)" xlink:href="#ak"/><use transform="matrix(0.06172839506172839,0,0,0.06172839506172839,6.172839506172839,0)" xlink:href="#al"/><use transform="matrix(0.06172839506172839,0,0,0.06172839506172839,18.51851851851852,0)" xlink:href="#am"/><use transform="matrix(0.06172839506172839,0,0,0.06172839506172839,30.864197530864196,0)" xlink:href="#an"/><use transform="matrix(0.06172839506172839,0,0,0.06172839506172839,43.20987654320987,0)" xlink:href="#ao"/><use transform="matrix(0.06172839506172839,0,0,0.06172839506172839,49.382716049382715,0)" xlink:href="#ap"/><use transform="matrix(0.06172839506172839,0,0,0.06172839506172839,54.25925925925926,0)" xlink:href="#ao"/><use transform="matrix(0.06172839506172839,0,0,0.06172839506172839,60.4320987654321,0)" xlink:href="#aq"/></g><path fill="#3a414a" d="M141-36C126-15 110 5 73 4 37 3 15-17 15-53c-1-64 63-63 125-63 3-35-9-54-41-54-24 1-41 7-42 31l-33-3c5-37 33-52 76-52 45 0 72 20 72 64v82c-1 20 7 32 28 27v20c-31 9-61-2-59-35zM48-53c0 20 12 33 32 33 41-3 63-29 60-74-43 2-92-5-92 41" id="ar"/><path fill="#3a414a" d="M177-190C167-65 218 103 67 71c-23-6-38-20-44-43l32-5c15 47 100 32 89-28v-30C133-14 115 1 83 1 29 1 15-40 15-95c0-56 16-97 71-98 29-1 48 16 59 35 1-10 0-23 2-32h30zM94-22c36 0 50-32 50-73 0-42-14-75-50-75-39 0-46 34-46 75s6 73 46 73" id="as"/><path fill="#3a414a" d="M210-169c-67 3-38 105-44 169h-31v-121c0-29-5-50-35-48C34-165 62-65 56 0H25l-1-190h30c1 10-1 24 2 32 10-44 99-50 107 0 11-21 27-35 58-36 85-2 47 119 55 194h-31v-121c0-29-5-49-35-48" id="at"/><g id="n"><use transform="matrix(0.06172839506172839,0,0,0.06172839506172839,0,0)" xlink:href="#ai"/><use transform="matrix(0.06172839506172839,0,0,0.06172839506172839,18.456790123456788,0)" xlink:href="#ar"/><use transform="matrix(0.06172839506172839,0,0,0.06172839506172839,30.80246913580247,0)" xlink:href="#an"/><use transform="matrix(0.06172839506172839,0,0,0.06172839506172839,43.148148148148145,0)" xlink:href="#ar"/><use transform="matrix(0.06172839506172839,0,0,0.06172839506172839,55.49382716049382,0)" xlink:href="#as"/><use transform="matrix(0.06172839506172839,0,0,0.06172839506172839,67.8395061728395,0)" xlink:href="#am"/><use transform="matrix(0.06172839506172839,0,0,0.06172839506172839,80.18518518518519,0)" xlink:href="#at"/><use transform="matrix(0.06172839506172839,0,0,0.06172839506172839,98.64197530864197,0)" xlink:href="#am"/><use transform="matrix(0.06172839506172839,0,0,0.06172839506172839,110.98765432098766,0)" xlink:href="#an"/><use transform="matrix(0.06172839506172839,0,0,0.06172839506172839,123.33333333333334,0)" xlink:href="#ao"/></g><path fill="#3a414a" d="M266 0h-40l-56-210L115 0H75L2-248h35L96-30l15-64 43-154h32l59 218 59-218h35" id="au"/><path fill="#3a414a" d="M115-194c53 0 69 39 70 98 0 66-23 100-70 100C84 3 66-7 56-30L54 0H23l1-261h32v101c10-23 28-34 59-34zm-8 174c40 0 45-34 45-75 0-40-5-75-45-74-42 0-51 32-51 76 0 43 10 73 51 73" id="av"/><g id="o"><use transform="matrix(0.06172839506172839,0,0,0.06172839506172839,0,0)" xlink:href="#au"/><use transform="matrix(0.06172839506172839,0,0,0.06172839506172839,20.493827160493826,0)" xlink:href="#am"/><use transform="matrix(0.06172839506172839,0,0,0.06172839506172839,32.839506172839506,0)" xlink:href="#av"/></g><path fill="#3a414a" d="M205 0l-28-72H64L36 0H1l101-248h38L239 0h-34zm-38-99l-47-123c-12 45-31 82-46 123h93" id="aw"/><path fill="#3a414a" d="M115-194c55 1 70 41 70 98S169 2 115 4C84 4 66-9 55-30l1 105H24l-1-265h31l2 30c10-21 28-34 59-34zm-8 174c40 0 45-34 45-75s-6-73-45-74c-42 0-51 32-51 76 0 43 10 73 51 73" id="ax"/><g id="p"><use transform="matrix(0.06172839506172839,0,0,0.06172839506172839,0,0)" xlink:href="#aw"/><use transform="matrix(0.06172839506172839,0,0,0.06172839506172839,14.814814814814813,0)" xlink:href="#ax"/><use transform="matrix(0.06172839506172839,0,0,0.06172839506172839,27.160493827160494,0)" xlink:href="#ax"/></g><linearGradient gradientUnits="userSpaceOnUse" id="q" x1="920" y1="174.67" x2="920" y2="234.42"><stop offset="22%" stop-color="#32d4f5" stop-opacity=".8"/><stop offset="100%" stop-color="#198ab3" stop-opacity=".8"/></linearGradient><linearGradient gradientUnits="userSpaceOnUse" id="r" x1="918.25" y1="178.09" x2="922.58" y2="236.78"><stop offset="22%" stop-color="#32d4f5" stop-opacity=".8"/><stop offset="100%" stop-color="#198ab3" stop-opacity=".8"/></linearGradient><path fill="#3a414a" d="M96-169c-40 0-48 33-48 73s9 75 48 75c24 0 41-14 43-38l32 2c-6 37-31 61-74 61-59 0-76-41-82-99-10-93 101-131 147-64 4 7 5 14 7 22l-32 3c-4-21-16-35-41-35" id="ay"/><g id="s"><use transform="matrix(0.06172839506172839,0,0,0.06172839506172839,0,0)" xlink:href="#aj"/><use transform="matrix(0.06172839506172839,0,0,0.06172839506172839,14.814814814814813,0)" xlink:href="#aq"/><use transform="matrix(0.06172839506172839,0,0,0.06172839506172839,25.925925925925924,0)" xlink:href="#an"/><use transform="matrix(0.06172839506172839,0,0,0.06172839506172839,38.2716049382716,0)" xlink:href="#ay"/></g><path fill="#3a414a" d="M153-248C145-148 188 4 80 4 36 3 13-21 6-62l32-5c4 25 16 42 43 43 27 0 39-20 39-49v-147H72v-28h81" id="az"/><path fill="#3a414a" d="M100-194c62-1 85 37 85 99 1 63-27 99-86 99S16-35 15-95c0-66 28-99 85-99zM99-20c44 1 53-31 53-75 0-43-8-75-51-75s-53 32-53 75 10 74 51 75" id="aA"/><g id="t"><use transform="matrix(0.06172839506172839,0,0,0.06172839506172839,0,0)" xlink:href="#az"/><use transform="matrix(0.06172839506172839,0,0,0.06172839506172839,11.11111111111111,0)" xlink:href="#aA"/><use transform="matrix(0.06172839506172839,0,0,0.06172839506172839,23.45679012345679,0)" xlink:href="#av"/></g><path fill="#6f7681" d="M87 75C49 33 22-17 22-94c0-76 28-126 65-167h31c-38 41-64 92-64 168S80 34 118 75H87" id="aB"/><path fill="#6f7681" d="M100-194c62-1 85 37 85 99 1 63-27 99-86 99S16-35 15-95c0-66 28-99 85-99zM99-20c44 1 53-31 53-75 0-43-8-75-51-75s-53 32-53 75 10 74 51 75" id="aC"/><path fill="#6f7681" d="M117-194c89-4 53 116 60 194h-32v-121c0-31-8-49-39-48C34-167 62-67 57 0H25l-1-190h30c1 10-1 24 2 32 11-22 29-35 61-36" id="aD"/><path fill="#6f7681" d="M100-194c63 0 86 42 84 106H49c0 40 14 67 53 68 26 1 43-12 49-29l28 8c-11 28-37 45-77 45C44 4 14-33 15-96c1-61 26-98 85-98zm52 81c6-60-76-77-97-28-3 7-6 17-6 28h103" id="aE"/><path fill="#6f7681" d="M16-82v-28h88v28H16" id="aF"/><path fill="#6f7681" d="M59-47c-2 24 18 29 38 22v24C64 9 27 4 27-40v-127H5v-23h24l9-43h21v43h35v23H59v120" id="aG"/><path fill="#6f7681" d="M24-231v-30h32v30H24zM24 0v-190h32V0H24" id="aH"/><path fill="#6f7681" d="M210-169c-67 3-38 105-44 169h-31v-121c0-29-5-50-35-48C34-165 62-65 56 0H25l-1-190h30c1 10-1 24 2 32 10-44 99-50 107 0 11-21 27-35 58-36 85-2 47 119 55 194h-31v-121c0-29-5-49-35-48" id="aI"/><path fill="#6f7681" d="M33-261c38 41 65 92 65 168S71 34 33 75H2C39 34 66-17 66-93S39-220 2-261h31" id="aJ"/><g id="u"><use transform="matrix(0.049382716049382706,0,0,0.049382716049382706,0,0)" xlink:href="#aB"/><use transform="matrix(0.049382716049382706,0,0,0.049382716049382706,5.876543209876542,0)" xlink:href="#aC"/><use transform="matrix(0.049382716049382706,0,0,0.049382716049382706,15.75308641975308,0)" xlink:href="#aD"/><use transform="matrix(0.049382716049382706,0,0,0.049382716049382706,25.629629629629626,0)" xlink:href="#aE"/><use transform="matrix(0.049382716049382706,0,0,0.049382716049382706,35.50617283950616,0)" xlink:href="#aF"/><use transform="matrix(0.049382716049382706,0,0,0.049382716049382706,41.38271604938271,0)" xlink:href="#aG"/><use transform="matrix(0.049382716049382706,0,0,0.049382716049382706,46.32098765432098,0)" xlink:href="#aH"/><use transform="matrix(0.049382716049382706,0,0,0.049382716049382706,50.222222222222214,0)" xlink:href="#aI"/><use transform="matrix(0.049382716049382706,0,0,0.049382716049382706,64.98765432098764,0)" xlink:href="#aE"/><use transform="matrix(0.049382716049382706,0,0,0.049382716049382706,74.86419753086419,0)" xlink:href="#aJ"/></g><path fill="#3a414a" d="M30-248c87 1 191-15 191 75 0 78-77 80-158 76V0H30v-248zm33 125c57 0 124 11 124-50 0-59-68-47-124-48v98" id="aK"/><path fill="#3a414a" d="M30-248c118-7 216 8 213 122C240-48 200 0 122 0H30v-248zM63-27c89 8 146-16 146-99s-60-101-146-95v194" id="aL"/><path fill="#3a414a" d="M63-220v92h138v28H63V0H30v-248h175v28H63" id="aM"/><g id="v"><use transform="matrix(0.06172839506172839,0,0,0.06172839506172839,0,0)" xlink:href="#aK"/><use transform="matrix(0.06172839506172839,0,0,0.06172839506172839,14.814814814814813,0)" xlink:href="#aL"/><use transform="matrix(0.06172839506172839,0,0,0.06172839506172839,30.80246913580247,0)" xlink:href="#aM"/></g><path fill="#3a414a" d="M114-163C36-179 61-72 57 0H25l-1-190h30c1 12-1 29 2 39 6-27 23-49 58-41v29" id="aN"/><path fill="#3a414a" d="M108 0H70L1-190h34L89-25l56-165h34" id="aO"/><g id="w"><use transform="matrix(0.06172839506172839,0,0,0.06172839506172839,0,0)" xlink:href="#aj"/><use transform="matrix(0.06172839506172839,0,0,0.06172839506172839,14.814814814814813,0)" xlink:href="#am"/><use transform="matrix(0.06172839506172839,0,0,0.06172839506172839,27.160493827160494,0)" xlink:href="#aN"/><use transform="matrix(0.06172839506172839,0,0,0.06172839506172839,34.50617283950617,0)" xlink:href="#aO"/><use transform="matrix(0.06172839506172839,0,0,0.06172839506172839,45.61728395061728,0)" xlink:href="#ap"/><use transform="matrix(0.06172839506172839,0,0,0.06172839506172839,50.49382716049382,0)" xlink:href="#ay"/><use transform="matrix(0.06172839506172839,0,0,0.06172839506172839,61.60493827160494,0)" xlink:href="#am"/></g><g id="x"><use transform="matrix(0.06172839506172839,0,0,0.06172839506172839,0,0)" xlink:href="#ah"/><use transform="matrix(0.06172839506172839,0,0,0.06172839506172839,17.28395061728395,0)" xlink:href="#aN"/><use transform="matrix(0.06172839506172839,0,0,0.06172839506172839,24.629629629629626,0)" xlink:href="#al"/><use transform="matrix(0.06172839506172839,0,0,0.06172839506172839,36.9753086419753,0)" xlink:href="#am"/><use transform="matrix(0.06172839506172839,0,0,0.06172839506172839,49.32098765432098,0)" xlink:href="#aN"/></g><path fill="#3a414a" d="M126-127c33 6 58 20 58 59 0 88-139 92-164 29-3-8-5-16-6-25l32-3c6 27 21 44 54 44 32 0 52-15 52-46 0-38-36-46-79-43v-28c39 1 72-4 72-42 0-27-17-43-46-43-28 0-47 15-49 41l-32-3c6-42 35-63 81-64 48-1 79 21 79 65 0 36-21 52-52 59" id="aP"/><g id="y"><use transform="matrix(0.06172839506172839,0,0,0.06172839506172839,0,0)" xlink:href="#aj"/><use transform="matrix(0.06172839506172839,0,0,0.06172839506172839,14.814814814814813,0)" xlink:href="#aP"/></g><path fill="#3a414a" d="M101-234c-31-9-42 10-38 44h38v23H63V0H32v-167H5v-23h27c-7-52 17-82 69-68v24" id="aQ"/><path fill="#3a414a" d="M24 0v-261h32V0H24" id="aR"/><g id="z"><use transform="matrix(0.06172839506172839,0,0,0.06172839506172839,0,0)" xlink:href="#aK"/><use transform="matrix(0.06172839506172839,0,0,0.06172839506172839,14.814814814814813,0)" xlink:href="#aN"/><use transform="matrix(0.06172839506172839,0,0,0.06172839506172839,22.160493827160494,0)" xlink:href="#aA"/><use transform="matrix(0.06172839506172839,0,0,0.06172839506172839,34.50617283950617,0)" xlink:href="#aQ"/><use transform="matrix(0.06172839506172839,0,0,0.06172839506172839,40.67901234567901,0)" xlink:href="#ap"/><use transform="matrix(0.06172839506172839,0,0,0.06172839506172839,45.55555555555556,0)" xlink:href="#aR"/><use transform="matrix(0.06172839506172839,0,0,0.06172839506172839,50.4320987654321,0)" xlink:href="#am"/></g><path fill="#3a414a" d="M160-131c35 5 61 23 61 61C221 17 115-2 30 0v-248c76 3 177-17 177 60 0 33-19 50-47 57zm-97-11c50-1 110 9 110-42 0-47-63-36-110-37v79zm0 115c55-2 124 14 124-45 0-56-70-42-124-44v89" id="aS"/><g id="A"><use transform="matrix(0.06172839506172839,0,0,0.06172839506172839,0,0)" xlink:href="#aL"/><use transform="matrix(0.06172839506172839,0,0,0.06172839506172839,15.987654320987653,0)" xlink:href="#aq"/><use transform="matrix(0.06172839506172839,0,0,0.06172839506172839,27.098765432098766,0)" xlink:href="#an"/><use transform="matrix(0.06172839506172839,0,0,0.06172839506172839,39.44444444444444,0)" xlink:href="#aL"/><use transform="matrix(0.06172839506172839,0,0,0.06172839506172839,55.432098765432094,0)" xlink:href="#aS"/></g><path fill="#333" d="M169-182c-1-43-94-46-97-3 18 66 151 10 154 114 3 95-165 93-204 36-6-8-10-19-12-30l50-8c3 46 112 56 116 5-17-69-150-10-154-114-4-87 153-88 188-35 5 8 8 18 10 28" id="aT"/><path fill="#333" d="M115-3C79 11 28 4 28-45v-112H4v-33h27l15-45h31v45h36v33H77v99c-1 23 16 31 38 25v30" id="aU"/><path fill="#333" d="M135-150c-39-12-60 13-60 57V0H25l-1-190h47c2 13-1 29 3 40 6-28 27-53 61-41v41" id="aV"/><path fill="#333" d="M185-48c-13 30-37 53-82 52C43 2 14-33 14-96s30-98 90-98c62 0 83 45 84 108H66c0 31 8 55 39 56 18 0 30-7 34-22zm-45-69c5-46-57-63-70-21-2 6-4 13-4 21h74" id="aW"/><path fill="#333" d="M133-34C117-15 103 5 69 4 32 3 11-16 11-54c-1-60 55-63 116-61 1-26-3-47-28-47-18 1-26 9-28 27l-52-2c7-38 36-58 82-57s74 22 75 68l1 82c-1 14 12 18 25 15v27c-30 8-71 5-69-32zm-48 3c29 0 43-24 42-57-32 0-66-3-65 30 0 17 8 27 23 27" id="aX"/><path fill="#333" d="M220-157c-53 9-28 100-34 157h-49v-107c1-27-5-49-29-50C55-147 81-57 75 0H25l-1-190h47c2 12-1 28 3 38 10-53 101-56 108 0 13-22 24-43 59-42 82 1 51 116 57 194h-49v-107c-1-25-5-48-29-50" id="aY"/><path fill="#333" d="M25-224v-37h50v37H25zM25 0v-190h50V0H25" id="aZ"/><path fill="#333" d="M135-194c87-1 58 113 63 194h-50c-7-57 23-157-34-157-59 0-34 97-39 157H25l-1-190h47c2 12-1 28 3 38 12-26 28-41 61-42" id="ba"/><path fill="#333" d="M195-6C206 82 75 100 31 46c-4-6-6-13-8-21l49-6c3 16 16 24 34 25 40 0 42-37 40-79-11 22-30 35-61 35-53 0-70-43-70-97 0-56 18-96 73-97 30 0 46 14 59 34l2-30h47zm-90-29c32 0 41-27 41-63 0-35-9-62-40-62-32 0-39 29-40 63 0 36 9 62 39 62" id="bb"/><g id="B"><use transform="matrix(0.04938271604938272,0,0,0.04938271604938272,0,0)" xlink:href="#aT"/><use transform="matrix(0.04938271604938272,0,0,0.04938271604938272,11.851851851851853,0)" xlink:href="#aU"/><use transform="matrix(0.04938271604938272,0,0,0.04938271604938272,17.728395061728396,0)" xlink:href="#aV"/><use transform="matrix(0.04938271604938272,0,0,0.04938271604938272,24.641975308641975,0)" xlink:href="#aW"/><use transform="matrix(0.04938271604938272,0,0,0.04938271604938272,34.51851851851852,0)" xlink:href="#aX"/><use transform="matrix(0.04938271604938272,0,0,0.04938271604938272,44.39506172839506,0)" xlink:href="#aY"/><use transform="matrix(0.04938271604938272,0,0,0.04938271604938272,60.19753086419754,0)" xlink:href="#aZ"/><use transform="matrix(0.04938271604938272,0,0,0.04938271604938272,65.1358024691358,0)" xlink:href="#ba"/><use transform="matrix(0.04938271604938272,0,0,0.04938271604938272,75.9506172839506,0)" xlink:href="#bb"/></g><path fill="#3a414a" d="M84 4C-5 8 30-112 23-190h32v120c0 31 7 50 39 49 72-2 45-101 50-169h31l1 190h-30c-1-10 1-25-2-33-11 22-28 36-60 37" id="bc"/><g id="C"><use transform="matrix(0.06172839506172839,0,0,0.06172839506172839,0,0)" xlink:href="#aw"/><use transform="matrix(0.06172839506172839,0,0,0.06172839506172839,14.814814814814813,0)" xlink:href="#bc"/><use transform="matrix(0.06172839506172839,0,0,0.06172839506172839,27.160493827160494,0)" xlink:href="#aN"/><use transform="matrix(0.06172839506172839,0,0,0.06172839506172839,34.50617283950617,0)" xlink:href="#aA"/><use transform="matrix(0.06172839506172839,0,0,0.06172839506172839,46.85185185185185,0)" xlink:href="#aN"/><use transform="matrix(0.06172839506172839,0,0,0.06172839506172839,54.197530864197525,0)" xlink:href="#ar"/><use transform="matrix(0.06172839506172839,0,0,0.06172839506172839,66.5432098765432,0)" xlink:href="#aL"/><use transform="matrix(0.06172839506172839,0,0,0.06172839506172839,82.53086419753086,0)" xlink:href="#aS"/></g><g id="D"><use transform="matrix(0.05,0,0,0.05,0,0)" xlink:href="#Y"/><use transform="matrix(0.05,0,0,0.05,14,0)" xlink:href="#Q"/><use transform="matrix(0.05,0,0,0.05,19.95,0)" xlink:href="#V"/><use transform="matrix(0.05,0,0,0.05,29.950000000000003,0)" xlink:href="#R"/><use transform="matrix(0.05,0,0,0.05,39.95,0)" xlink:href="#Q"/></g><path d="M30 0v-248h187v28H63v79h144v27H63v87h162V0H30" id="bd"/><path d="M135-143c-3-34-86-38-87 0 15 53 115 12 119 90S17 21 10-45l28-5c4 36 97 45 98 0-10-56-113-15-118-90-4-57 82-63 122-42 12 7 21 19 24 35" id="be"/><g id="E"><use transform="matrix(0.05,0,0,0.05,0,0)" xlink:href="#bd"/><use transform="matrix(0.05,0,0,0.05,12,0)" xlink:href="#ae"/><use transform="matrix(0.05,0,0,0.05,21,0)" xlink:href="#R"/><use transform="matrix(0.05,0,0,0.05,31,0)" xlink:href="#Z"/><use transform="matrix(0.05,0,0,0.05,41,0)" xlink:href="#ac"/><use transform="matrix(0.05,0,0,0.05,46,0)" xlink:href="#be"/></g></defs></g></svg>